# xmcd
#
# Track frame offsets: 
#        150
#        14271
#        36601
#        56892
#        82284
#        97097
#        115704
#        131955
#        152328
#        166200
#
# Disc length: 2386 seconds
#
# Revision: 0
# Processed by: cddbd v1.5.2PL0 Copyright (c) Steve Scherf et al.
# Submitted via: ExactAudioCopyFreeDBPlugin 1.0
#
DISCID=8809500a
DTITLE=Triumphant Quartet - Awsome God
DYEAR=2014
DGENRE=Southern Gospel
TTITLE0=Sing For You
TTITLE1=We Will Remember
TTITLE2=I Can Only Imagine
TTITLE3=This Blood
TTITLE4=Oh Happy Day Medley
TTITLE5=I Will Rise
TTITLE6=Days Of Elijah
TTITLE7=O The Blood
TTITLE8=Put On A Crown
TTITLE9=Awsome God - How Great Is Our God
EXTD=Southern GospelBarcode: 0112255512
EXTT0=
EXTT1=
EXTT2=
EXTT3=
EXTT4=
EXTT5=
EXTT6=
EXTT7=
EXTT8=
EXTT9=
PLAYORDER=
